<?xml version="1.0" encoding="utf-8"?>
<!-- Generator: Adobe Illustrator 27.1.1, SVG Export Plug-In . SVG Version: 6.00 Build 0)  -->
<svg version="1.1" id="Capa_1" xmlns="http://www.w3.org/2000/svg" xmlns:xlink="http://www.w3.org/1999/xlink" x="0px" y="0px"
	 viewBox="0 0 1080 1080" style="enable-background:new 0 0 1080 1080;" xml:space="preserve">
<style type="text/css">
	.st0{fill:#5CB1AC;}
</style>
<g>
	<path class="st0" d="M869.96,319.34H210.04c-32.61,0-59.05-26.44-59.05-59.05v0c0-32.61,26.44-59.05,59.05-59.05h659.92
		c32.61,0,59.05,26.44,59.05,59.05v0C929.01,292.9,902.57,319.34,869.96,319.34z"/>
	<path class="st0" d="M869.96,599.05H210.04c-32.61,0-59.05-26.44-59.05-59.05v0c0-32.61,26.44-59.05,59.05-59.05h659.92
		c32.61,0,59.05,26.44,59.05,59.05v0C929.01,572.61,902.57,599.05,869.96,599.05z"/>
	<path class="st0" d="M869.96,878.76H210.04c-32.61,0-59.05-26.44-59.05-59.05v0c0-32.61,26.44-59.05,59.05-59.05h659.92
		c32.61,0,59.05,26.44,59.05,59.05v0C929.01,852.33,902.57,878.76,869.96,878.76z"/>
</g>
</svg>
